# AST/ASF file generated using VICON BodyLanguage
# -----------------------------------------------
:version 1.10
:name VICON
:units
  mass 1.0
  length 0.45
  angle deg
:documentation
   .ast/.asf automatically generated from VICON data using
   VICON BodyBuilder and BodyLanguage model FoxedUp or BRILLIANT.MOD
:root
   order TX TY TZ RX RY RZ
   axis XYZ
   position 0 0 0  
   orientation 0 0 0 
:bonedata
  begin
     id 1 
     name lhipjoint
     direction 0.690799 -0.707083 0.151096 
     length 2.54797 
     axis 0 0 0  XYZ
  end
  begin
     id 2 
     name lfemur
     direction 0.34202 -0.939693 0  
     length 7.21646  
     axis 0 0 20  XYZ
    dof rx ry rz
    limits (-160.0 20.0)
           (-70.0 70.0)
           (-60.0 70.0)
  end
  begin
     id 3 
     name ltibia
     direction 0.34202 -0.939693 0   
     length 8.16759   
     axis 0 0 20   XYZ
    dof rx
    limits (-10.0 170.0)
  end
  begin
     id 4 
     name lfoot
     direction 0.0487203 -0.133858 0.989802   
     length 1.93375   
     axis -90 7.62852e-016 20   XYZ
    dof rx rz
    limits (-45.0 90.0)
           (-70.0 20.0)
  end
  begin
     id 5 
     name ltoes
     direction 1.53453e-011 -4.21783e-011 1   
     length 0.979747   
     axis -90 7.62852e-016 20   XYZ
    dof rx
    limits (-90.0 20.0)
  end
  begin
     id 6 
     name rhipjoint
     direction -0.694693 -0.703425 0.150315   
     length 2.56122  
     axis 0 0 0  XYZ 
  end
  begin
     id 7 
     name rfemur
     direction -0.34202 -0.939693 0   
     length 7.36786   
     axis 0 0 -20   XYZ
    dof rx ry rz
    limits (-160.0 20.0)
           (-70.0 70.0)
           (-70.0 60.0)
  end
  begin
     id 8 
     name rtibia
     direction -0.34202 -0.939693 0   
     length 8.07288   
     axis 0 0 -20   XYZ
    dof rx
    limits (-10.0 170.0)
 end
 begin
     id 9 
     name rfoot
     direction -0.0428397 -0.117701 0.992125   
     length 1.88295  
     axis -90 -7.62852e-016 -20   XYZ
    dof rx rz
    limits (-45.0 90.0)
           (-20.0 70.0)
  end
  begin
     id 10 
     name rtoes
     direction -1.53456e-011 -4.2187e-011 1   
     length 0.955578   
     axis -90 -7.62852e-016 -20   XYZ
    dof rx
    limits (-90.0 20.0)
  end
  begin
     id 11 
     name lowerback
     direction 0.0288145 0.999398 -0.0193241   
     length 1.92149   
     axis 0 0 0   XYZ
    dof rx ry rz
    limits (-20.0 45.0)
           (-30.0 30.0)
           (-30.0 30.0)
  end
  begin
     id 12 
     name upperback
     direction 0.0233784 0.998099 0.0570278   
     length 1.90435   
     axis 0 0 0   XYZ
    dof rx ry rz
    limits (-20.0 45.0)
           (-30.0 30.0)
           (-30.0 30.0)
  end
  begin
     id 13 
     name thorax
     direction 0.0096694 0.997833 0.0650817   
     length 1.9111   
     axis 0 0 0   XYZ
    dof rx ry rz
    limits (-20.0 45.0)
           (-30.0 30.0)
           (-30.0 30.0)
  end
  begin
     id 14 
     name lowerneck
     direction 0.00516803 0.999916 0.0118722   
     length 1.74664   
     axis 0 0 0   XYZ
    dof rx ry rz
    limits (-20.0 45.0)
           (-30.0 30.0)
           (-30.0 30.0)
  end
  begin
     id 15 
     name upperneck
     direction -0.0510851 0.996117 -0.071696   
     length 1.68498   
     axis 0 0 0   XYZ
    dof rx ry rz
    limits (-20.0 45.0)
           (-30.0 30.0)
           (-30.0 30.0)
  end
  begin
     id 16
     name head
     direction -0.019188 0.999436 -0.0275702  
     length 1.83483  
     axis 0 0 0   XYZ
    dof rx ry rz
    limits (-20.0 45.0)
           (-30.0 30.0)
           (-30.0 30.0)
  end
  begin
     id 17 
     name lclavicle
     direction 0.967006 0.248456 -0.0562957  
     length 3.39395  
     axis 0 0 0   XYZ
    dof ry rz
    limits (-20.0 10.0)
           (0.0 20.0)
  end
  begin
     id 18 
     name lhumerus
     direction 1 -4.48962e-011 -5.62711e-019   
     length 5.24318   
     axis 180 -30 -90   XYZ
    dof rx ry rz
    limits (-60.0 90.0)
           (-90.0 90.0)
           (-90.0 90.0)
  end
  begin
     id 19
     name lradius
     direction 1 -4.48966e-011 7.90625e-027   
     length 2.98999   
     axis 180 -30 -90   XYZ
    dof rx
    limits (-10.0 170.0)
  end
  begin
     id 20
     name lwrist
     direction 1 -4.48959e-011 1.61068e-026   
     length 1.49499   
     axis -9.31229e-015 90 90   XYZ
    dof ry
    limits (-180.0 0.0)
 end
  begin
     id 21 
     name lhand
     direction 1 -4.49017e-011 3.22136e-026   
     length 0.726745   
     axis -2.0555e-014 90 90   XYZ
    dof rx rz
    limits (-90.0 90.0)
           (-45.0 45.0)
  end
  begin
     id 22 
     name lfingers
     direction 1 -4.4898e-011 6.44272e-026   
     length 0.58592   
     axis -4.11101e-014 90 90   XYZ
    dof rx
    limits (0.0 90.0)
  end
  begin
     id 23
     name lthumb
     direction 0.707107 -6.34922e-011 0.707107   
     length 0.841268   
     axis -90 45 2.85299e-015   XYZ
    dof rx rz
    limits (-45.0 45.0)
           (-45.0 45.0)
  end
  begin
     id 24 
     name rclavicle
     direction -0.972232 0.230238 0.0419005   
     length 3.40416  
     axis 0 0 0   XYZ 
    dof ry rz
    limits (-10.0 20.0)
           (-20.0 0.0)
  end
  begin
     id 25 
     name rhumerus
     direction -1 -4.48976e-011 2.48487e-027  
     length 5.37045   
     axis 180 30 90   XYZ
    dof rx ry rz
    limits (-90.0 60.0)
           (-90.0 90.0)
           (-90.0 90.0)
  end
  begin
     id 26 
     name rradius
     direction -1 -4.48942e-011 7.87951e-027   
     length 2.92792   
     axis 180 30 90   XYZ
    dof rx
    limits (-10.0 170.0)
  end
  begin
     id 27 
     name rwrist
     direction -1 -4.48969e-011 1.61068e-026   
     length 1.46396   
     axis -9.31229e-015 -90 -90   XYZ
    dof ry
    limits (-180.0 0.0)
  end
  begin
     id 28
     name rhand
     direction -1 -4.49043e-011 3.22136e-026   
     length 0.784497   
     axis -2.0555e-014 -90 -90   XYZ
    dof rx rz
    limits (-90.0 90.0)
           (-45.0 45.0)
  end
  begin
     id 29
     name rfingers
     direction -1 -4.48823e-011 6.44272e-026   
     length 0.632482   
     axis -4.11101e-014 -90 -90   XYZ
    dof rx
    limits (0.0 90.0)
  end
  begin
     id 30
     name rthumb
     direction -0.707107 -6.34923e-011 0.707107   
     length 0.908121   
     axis -90 -45 -2.85299e-015   XYZ
    dof rx rz
    limits (-45.0 45.0)
           (-45.0 45.0)
  end
:hierarchy
  begin
    root lhipjoint rhipjoint lowerback
    lhipjoint lfemur
    lfemur ltibia
    ltibia lfoot
    lfoot ltoes
    rhipjoint rfemur
    rfemur rtibia
    rtibia rfoot
    rfoot rtoes
    lowerback upperback
    upperback thorax
    thorax lowerneck lclavicle rclavicle
    lowerneck upperneck
    upperneck head
    lclavicle lhumerus
    lhumerus lradius
    lradius lwrist
    lwrist lhand lthumb
    lhand lfingers
    rclavicle rhumerus
    rhumerus rradius
    rradius rwrist
    rwrist rhand rthumb
    rhand rfingers
  end

#!OML:ASF E:\Style6\Style6.ASF
:FULLY-SPECIFIED
:DEGREES
989
root 0.22792 18.2377 0.544797 11.3023 -4.01552 -3.04095
lowerback -4.16073 -0.0553553 2.15919
upperback -4.86685 -0.070905 2.94179
thorax -2.67826 -0.0524633 1.8181
lowerneck -7.25402 0.467327 4.12729
upperneck 9.67977 0.987481 -7.8015
head 4.1327 0.215494 -3.01705
rclavicle 1.42876e-015 1.35174e-014
rhumerus -45.988 -12.2018 -71.3147
rradius 24.3595
rwrist 32.2828
rhand -6.69938 11.2744
rfingers 7.12502
rthumb 19.1599 -17.8019
lclavicle 1.42876e-015 1.35174e-014
lhumerus -44.0475 12.6312 77.3146
lradius 17.6963
lwrist -27.9723
lhand -3.39495 16.8612
lfingers 7.12502
lthumb 22.3349 45.5902
rfemur -11.6714 14.9126 20.169
rtibia 9.52661
rfoot -3.46492 -16.9175
rtoes -17.8899
lfemur -15.4627 -17.8034 -13.7076
ltibia 19.9642
lfoot -8.48841 23.1137
ltoes -10.3716
990
root 0.227799 18.2371 0.53956 11.2402 -4.00601 -3.06369
lowerback -4.04071 -0.0573907 2.18902
upperback -4.88455 -0.0684892 2.94069
thorax -2.76401 -0.0525223 1.80081
lowerneck -7.19802 0.47091 4.13574
upperneck 9.70776 0.996494 -7.82202
head 4.13242 0.219888 -3.02442
rclavicle -5.2181e-015 2.54444e-014
rhumerus -46.1639 -12.1137 -71.3874
rradius 24.4932
rwrist 31.7159
rhand -6.36445 11.0274
rfingers 7.12502
rthumb 19.482 -18.0166
lclavicle -5.2181e-015 2.54444e-014
lhumerus -43.955 12.6094 77.4458
lradius 17.6888
lwrist -28.0352
lhand -3.5358 16.6844
lfingers 7.12502
lthumb 22.1997 45.4296
rfemur -11.6453 14.9082 20.2143
rtibia 9.58143
rfoot -3.62685 -16.9279
rtoes -17.0782
lfemur -15.4108 -17.7623 -13.6985
ltibia 19.9669
lfoot -8.40026 23.05
ltoes -10.5195
991
root 0.227998 18.2375 0.534895 11.1798 -3.98381 -3.07134
lowerback -3.96626 -0.0763358 2.19237
upperback -4.87442 -0.0909218 2.94696
thorax -2.79486 -0.0638385 1.80522
lowerneck -7.13627 0.478091 4.11468
upperneck 9.67113 1.00902 -7.83117
head 4.11169 0.226514 -3.0226
rclavicle -1.41386e-014 7.95139e-016
rhumerus -46.2468 -12.1145 -71.3985
rradius 24.531
rwrist 31.4073
rhand -6.16726 11.0011
rfingers 7.12502
rthumb 19.6716 -18.0236
lclavicle -1.41386e-014 7.95139e-016
lhumerus -43.7903 12.5475 77.6416
lradius 17.7032
lwrist -28.0119
lhand -3.60492 16.6816
lfingers 7.12502
lthumb 22.1333 45.4347
rfemur -11.6022 14.888 20.2448
rtibia 9.61758
rfoot -3.54625 -16.935
rtoes -17.6623
lfemur -15.3731 -17.7663 -13.7
ltibia 19.9828
lfoot -8.43696 23.0119
ltoes -10.4728
992
root 0.22945 18.2387 0.528951 11.1654 -3.93879 -3.064
lowerback -3.91072 -0.109264 2.20734
upperback -4.88507 -0.132405 2.94652
thorax -2.83647 -0.0852687 1.79609
lowerneck -7.14718 0.497745 4.06684
upperneck 9.66721 1.03803 -7.80731
head 4.11391 0.240153 -3.00562
rclavicle -8.11911e-015 1.66979e-014
rhumerus -46.3347 -11.9734 -71.5315
rradius 24.7437
rwrist 30.8823
rhand -5.88533 10.7876
rfingers 7.12502
rthumb 19.9426 -18.2091
lclavicle -8.11911e-015 1.66979e-014
lhumerus -43.6086 12.4517 77.9019
lradius 17.7753
lwrist -27.8658
lhand -3.62318 16.7549
lfingers 7.12502
lthumb 22.1158 45.5101
rfemur -11.6247 14.8412 20.2449
rtibia 9.67
rfoot -3.38337 -16.9204
rtoes -18.4788
lfemur -15.398 -17.699 -13.71
ltibia 19.9916
lfoot -8.44691 22.9247
ltoes -10.6397
993
root 0.229794 18.2387 0.522977 11.1659 -3.93655 -3.06605
lowerback -3.85821 -0.11863 2.21283
upperback -4.91226 -0.141821 2.94465
thorax -2.89407 -0.0904523 1.79144
lowerneck -7.19177 0.503865 3.99814
upperneck 9.72779 1.0489 -7.73621
head 4.13991 0.24509 -2.97218
rclavicle 1.98785e-016 1.03368e-014
rhumerus -46.4387 -11.8208 -71.6811
rradius 24.9447
rwrist 30.4432
rhand -5.74046 10.5531
rfingers 7.12502
rthumb 20.0818 -18.4291
lclavicle 1.98785e-016 1.03368e-014
lhumerus -43.4171 12.2509 78.2239
lradius 17.8884
lwrist -27.599
lhand -3.5171 16.8817
lfingers 7.12502
lthumb 22.2176 45.6248
rfemur -11.665 14.8393 20.2475
rtibia 9.71043
rfoot -3.27122 -16.9534
rtoes -19.3864
lfemur -15.4226 -17.6489 -13.7086
ltibia 20.0131
lfoot -8.36119 22.9224
ltoes -11.1422
994
root 0.229763 18.2396 0.519106 11.1533 -3.96227 -3.02796
lowerback -3.85831 -0.107962 2.19865
upperback -4.91066 -0.128298 2.89904
thorax -2.89242 -0.0840561 1.7524
lowerneck -7.17363 0.501047 3.98776
upperneck 9.7462 1.04144 -7.67777
head 4.14168 0.2443 -2.95287
rclavicle -1.14053e-014 2.22639e-014
rhumerus -46.5158 -11.9587 -71.6876
rradius 24.9763
rwrist 30.4814
rhand -5.75045 10.604
rfingers 7.12502
rthumb 20.0722 -18.3792
lclavicle -1.14053e-014 2.22639e-014
lhumerus -43.2155 11.83 78.638
lradius 18.1158
lwrist -27.0308
lhand -3.4399 16.9122
lfingers 7.12502
lthumb 22.2917 45.6464
rfemur -11.6575 14.855 20.1981
rtibia 9.68455
rfoot -3.32181 -16.9749
rtoes -19.0286
lfemur -15.4363 -17.6024 -13.7702
ltibia 20.0651
lfoot -8.24801 22.9325
ltoes -11.5927
995
root 0.228342 18.2409 0.51412 11.1515 -3.97139 -3.0457
lowerback -3.81465 -0.122129 2.20196
upperback -4.93455 -0.14446 2.90644
thorax -2.94153 -0.0923583 1.75841
lowerneck -7.16051 0.528046 3.98282
upperneck 9.78642 1.07972 -7.66541
head 4.15393 0.263356 -2.94636
rclavicle 9.49197e-015 -2.8625e-014
rhumerus -46.5645 -11.855 -71.79
rradius 25.046
rwrist 30.307
rhand -5.68455 10.5738
rfingers 7.12502
rthumb 20.1356 -18.4027
lclavicle 9.49197e-015 -2.8625e-014
lhumerus -43.0755 11.4018 79.1133
lradius 18.4203
lwrist -26.4326
lhand -3.36512 16.9532
lfingers 7.12502
lthumb 22.3635 45.6788
rfemur -11.6512 14.8683 20.2203
rtibia 9.63637
rfoot -3.25759 -16.974
rtoes -19.079
lfemur -15.4725 -17.5492 -13.7511
ltibia 20.1184
lfoot -8.20541 22.8598
ltoes -11.4198
996
root 0.227984 18.2422 0.508955 11.1663 -3.99085 -3.15055
lowerback -3.83219 -0.125754 2.30331
upperback -4.92768 -0.151611 2.92813
thorax -2.925 -0.0988111 1.72385
lowerneck -7.14811 0.553636 4.0428
upperneck 9.77861 1.10959 -7.68643
head 4.15162 0.279494 -2.96104
rclavicle 1.5996e-014 1.82882e-014
rhumerus -46.5305 -11.6699 -72.024
rradius 25.1754
rwrist 29.8927
rhand -5.5291 10.5206
rfingers 7.12502
rthumb 20.285 -18.4401
lclavicle 1.5996e-014 1.82882e-014
lhumerus -42.8643 11.0582 79.528
lradius 18.7354
lwrist -26.0102
lhand -3.16976 17.0922
lfingers 7.12502
lthumb 22.551 45.7952
rfemur -11.6958 14.9091 20.3248
rtibia 9.64669
rfoot -3.17671 -16.9765
rtoes -19.2783
lfemur -15.5069 -17.5515 -13.629
ltibia 20.1396
lfoot -8.16207 22.8997
ltoes -11.4409
997
root 0.229261 18.2428 0.50448 11.1551 -3.99295 -3.16619
lowerback -3.90318 -0.117954 2.33836
upperback -4.88411 -0.146784 2.91402
thorax -2.84011 -0.097344 1.68898
lowerneck -7.13479 0.552927 4.11651
upperneck 9.76634 1.10599 -7.74341
head 4.14596 0.277804 -2.99101
rclavicle 4.93234e-015 6.36111e-015
rhumerus -46.4561 -11.4972 -72.2945
rradius 25.33
rwrist 29.4224
rhand -5.49474 10.473
rfingers 7.12502
rthumb 20.318 -18.4842
lclavicle 4.93234e-015 6.36111e-015
lhumerus -42.5416 10.7935 79.8966
lradius 18.9168
lwrist -25.7531
lhand -3.09787 17.0935
lfingers 7.12502
lthumb 22.62 45.7881
rfemur -11.7186 14.9123 20.335
rtibia 9.67148
rfoot -3.2442 -16.9683
rtoes -19.0938
lfemur -15.5208 -17.62 -13.6064
ltibia 20.1542
lfoot -8.08859 22.9737
ltoes -11.8657
998
root 0.229261 18.2414 0.497157 11.1265 -4.03599 -3.04245
lowerback -3.91769 -0.0992562 2.20667
upperback -4.84599 -0.122402 2.86447
thorax -2.79194 -0.0815473 1.71144
lowerneck -7.13418 0.541644 4.18006
upperneck 9.71408 1.09026 -7.83346
head 4.12968 0.26827 -3.02993
rclavicle -2.32951e-015 1.03368e-014
rhumerus -46.3445 -11.2627 -72.605
rradius 25.4924
rwrist 28.9191
rhand -5.43592 10.3726
rfingers 7.12502
rthumb 20.3745 -18.5786
lclavicle -2.32951e-015 1.03368e-014
lhumerus -42.1423 10.5922 80.2116
lradius 18.9751
lwrist -25.7566
lhand -3.11673 17.062
lfingers 7.12502
lthumb 22.6019 45.7588
rfemur -11.787 14.9247 20.1822
rtibia 9.76585
rfoot -3.36724 -16.9717
rtoes -18.4385
lfemur -15.5109 -17.6067 -13.7438
ltibia 20.1296
lfoot -8.11159 22.9683
ltoes -11.7523
999
root 0.228701 18.2407 0.48983 11.0843 -4.10838 -2.98417
lowerback -3.8873 -0.0781724 2.13076
upperback -4.80765 -0.0933648 2.84557
thorax -2.76918 -0.0648029 1.73461
lowerneck -7.13812 0.522543 4.12766
upperneck 9.65262 1.06652 -7.83067
head 4.11005 0.25554 -3.0212
rclavicle 9.13167e-016 -7.15625e-015
rhumerus -46.1622 -11.2 -72.7658
rradius 25.5428
rwrist 28.7209
rhand -5.40263 10.3696
rfingers 7.12502
rthumb 20.4065 -18.5781
lclavicle 9.13167e-016 -7.15625e-015
lhumerus -41.7957 10.006 80.8044
lradius 19.3193
lwrist -25.3982
lhand -2.87745 17.3271
lfingers 7.12502
lthumb 22.8316 45.9958
rfemur -11.899 14.9805 20.1023
rtibia 9.98744
rfoot -3.4871 -16.9746
rtoes -18.1674
lfemur -15.4404 -17.5706 -13.8186
ltibia 20.0542
lfoot -8.28559 22.9169
ltoes -10.698
1000
root 0.22867 18.2394 0.484216 11.0491 -4.15843 -2.91995
lowerback -3.84868 -0.0729019 2.05527
upperback -4.80077 -0.0842164 2.81748
thorax -2.78346 -0.0583927 1.74809
lowerneck -7.17009 0.516588 4.09048
upperneck 9.70279 1.06005 -7.78681
head 4.1299 0.252021 -3.00229
rclavicle -1.93815e-015 -1.51076e-014
rhumerus -46.0557 -11.2204 -72.8902
rradius 25.6585
rwrist 28.5545
rhand -5.30259 10.4084
rfingers 7.12502
rthumb 20.5027 -18.529
lclavicle -1.93815e-015 -1.51076e-014
lhumerus -41.5674 9.55275 81.2513
lradius 19.7233
lwrist -24.9452
lhand -2.81658 17.2634
lfingers 7.12502
lthumb 22.89 45.9248
rfemur -12.0168 15.0134 20.0191
rtibia 10.2111
rfoot -3.48659 -16.9717
rtoes -18.7252
lfemur -15.3837 -17.5609 -13.8927
ltibia 19.9771
lfoot -8.41436 22.8951
ltoes -10.0086
1001
root 0.228148 18.239 0.47962 11.0383 -4.16766 -2.83942
lowerback -3.83415 -0.0748894 1.97065
upperback -4.82479 -0.0848989 2.77016
thorax -2.81615 -0.0570334 1.74684
lowerneck -7.20773 0.51309 4.05749
upperneck 9.82883 1.0518 -7.66243
head 4.17326 0.251045 -2.95986
rclavicle -1.93815e-015 -1.59028e-015
rhumerus -46.0154 -11.234 -73.0308
rradius 25.7928
rwrist 28.3874
rhand -5.32863 10.5794
rfingers 7.12502
rthumb 20.4776 -18.3607
lclavicle -1.93815e-015 -1.59028e-015
lhumerus -41.3462 9.25525 81.5328
lradius 19.9548
lwrist -24.4892
lhand -3.10319 16.7488
lfingers 7.12502
lthumb 22.6149 45.444
rfemur -12.0584 14.9989 19.9301
rtibia 10.2679
rfoot -3.46582 -16.9432
rtoes -19.162
lfemur -15.3881 -17.5238 -13.9794
ltibia 19.9564
lfoot -8.33444 22.8687
ltoes -10.4659
1002
root 0.227097 18.2392 0.475049 11.0398 -4.16122 -2.84505
lowerback -3.8341 -0.0731717 1.96997
upperback -4.86274 -0.0817163 2.74915
thorax -2.85564 -0.0559562 1.72589
lowerneck -7.14581 0.502623 4.06232
upperneck 9.87419 1.03231 -7.58192
head 4.17504 0.246622 -2.93705
rclavicle 2.45996e-015 2.18663e-014
rhumerus -46.0097 -11.0873 -73.2673
rradius 26.0107
rwrist 28.1868
rhand -5.34717 10.7004
rfingers 7.12502
rthumb 20.4598 -18.2416
lclavicle 2.45996e-015 2.18663e-014
lhumerus -41.0923 8.95908 81.813
lradius 20.0472
lwrist -24.1971
lhand -3.48891 16.2765
lfingers 7.12502
lthumb 22.2447 45.0164
rfemur -12.0596 15.0317 19.9318
rtibia 10.2533
rfoot -3.5053 -16.9818
rtoes -18.7168
lfemur -15.4107 -17.5215 -13.9601
ltibia 19.9569
lfoot -8.28672 22.8833
ltoes -10.644
1003
root 0.226261 18.2396 0.470192 11.0343 -4.17916 -2.9475
lowerback -3.85191 -0.071642 2.06528
upperback -4.88164 -0.0809121 2.7752
thorax -2.86573 -0.0582271 1.69952
lowerneck -7.05707 0.494778 4.0391
upperneck 9.88339 1.02347 -7.54986
head 4.16213 0.244722 -2.92366
rclavicle -1.03741e-015 7.15625e-015
rhumerus -45.9528 -10.8514 -73.5228
rradius 26.266
rwrist 27.9799
rhand -5.28759 10.64
rfingers 7.12502
rthumb 20.5171 -18.2959
lclavicle -1.03741e-015 7.15625e-015
lhumerus -40.8146 8.40449 82.3139
lradius 20.2764
lwrist -23.6872
lhand -3.69322 16.1023
lfingers 7.12502
lthumb 22.0485 44.8655
rfemur -12.0329 15.0701 20.0436
rtibia 10.1973
rfoot -3.46504 -17.0032
rtoes -18.7075
lfemur -15.4178 -17.5807 -13.8388
ltibia 19.9809
lfoot -8.30149 22.9643
ltoes -10.3309
